<svg width="24" height="24" viewBox="0 0 24 24" fill="none" xmlns="http://www.w3.org/2000/svg">
<path d="M5 17H18C20.2091 17 22 15.2091 22 13C22 11.1238 20.7083 9.54938 18.9657 9.11736C18.9884 8.9147 19 8.70871 19 8.5C19 5.46243 16.5376 3 13.5 3C10.9806 3 8.85678 4.69403 8.20557 7.00519C8.13748 7.00174 8.06894 7 8 7C5.79086 7 4 8.79086 4 11C4 11.0568 4.00118 11.1133 4.00352 11.1695C2.83649 11.5803 2 12.6925 2 14C2 15.6569 3.34315 17 5 17Z" fill="url(#paint0_linear_3_9393)"/>
<path d="M5 19C4.44772 19 4 19.4477 4 20C4 20.5523 4.44772 21 5 21H19C19.5523 21 20 20.5523 20 20C20 19.4477 19.5523 19 19 19H5Z" fill="url(#paint1_linear_3_9393)"/>
<defs>
<linearGradient id="paint0_linear_3_9393" x1="13.9504" y1="8.88047" x2="5.66817" y2="31.27" gradientUnits="userSpaceOnUse">
<stop stop-color="white"/>
<stop offset="1" stop-color="#4D5E6F"/>
</linearGradient>
<linearGradient id="paint1_linear_3_9393" x1="13.9504" y1="8.88047" x2="5.66817" y2="31.27" gradientUnits="userSpaceOnUse">
<stop stop-color="white"/>
<stop offset="1" stop-color="#4D5E6F"/>
</linearGradient>
</defs>
</svg>
