<svg width="14" height="10" viewBox="0 0 14 10" fill="none" xmlns="http://www.w3.org/2000/svg">
<g filter="url(#filter0_i_1_45)">
<path d="M0.4375 6.3125C0.195892 6.3125 0 6.50837 0 6.75C0 6.99163 0.195892 7.1875 0.4375 7.1875H10.7341C10.5852 7.44489 10.5 7.74375 10.5 8.0625C10.5 9.02901 11.2835 9.8125 12.25 9.8125C13.2165 9.8125 14 9.02901 14 8.0625C14 7.09599 13.2165 6.3125 12.25 6.3125H0.4375Z" fill="#C01B3C"/>
<path d="M9.95582 4.93501C9.89631 5.16711 10.0366 5.40736 10.2753 5.42787C10.7065 5.46491 11.1426 5.39493 11.5438 5.22107C12.0784 4.98937 12.5208 4.58636 12.8012 4.07554C13.0815 3.56471 13.184 2.97512 13.0923 2.39966C13.0007 1.8242 12.7202 1.29559 12.295 0.897133C11.8698 0.498673 11.3241 0.253013 10.7439 0.198862C10.1637 0.144712 9.58203 0.28515 9.09046 0.598047C8.59888 0.910943 8.22539 1.37851 8.02884 1.92707C7.88135 2.3387 7.83978 2.77837 7.9047 3.20625C7.94064 3.44315 8.18948 3.56755 8.41724 3.49312C8.64499 3.41869 8.76338 3.17263 8.74687 2.93359C8.73025 2.6929 8.76326 2.44979 8.84568 2.21975C8.97727 1.85252 9.2273 1.53951 9.55638 1.33004C9.88547 1.12057 10.2749 1.02655 10.6633 1.0628C11.0517 1.09905 11.417 1.26351 11.7017 1.53026C11.9863 1.79701 12.1741 2.15088 12.2354 2.53612C12.2968 2.92136 12.2282 3.31607 12.0405 3.65804C11.8528 4.00001 11.5567 4.26981 11.1987 4.42492C10.9745 4.52208 10.7341 4.57078 10.4928 4.56979C10.2532 4.56882 10.0153 4.70291 9.95582 4.93501Z" fill="#C01B3C"/>
<path d="M1.75 5C1.75 4.75838 1.94588 4.5625 2.1875 4.5625H10.5V5.4375H2.1875C1.94588 5.4375 1.75 5.24163 1.75 5Z" fill="#C01B3C"/>
<path d="M2.625 8.5C2.625 8.25838 2.82088 8.0625 3.0625 8.0625H7.4375C7.67912 8.0625 7.875 8.25838 7.875 8.5C7.875 8.74162 7.67912 8.9375 7.4375 8.9375H3.0625C2.82088 8.9375 2.625 8.74162 2.625 8.5Z" fill="#C01B3C"/>
<path d="M5.6875 3.6875C6.41238 3.6875 7 3.09988 7 2.375C7 1.65012 6.41238 1.0625 5.6875 1.0625C4.96262 1.0625 4.375 1.65012 4.375 2.375C4.375 2.52841 4.40128 2.67565 4.44966 2.8125H0.4375C0.195892 2.8125 0 3.00837 0 3.25C0 3.49163 0.195892 3.6875 0.4375 3.6875H5.6875Z" fill="#C01B3C"/>
</g>
<defs>
<filter id="filter0_i_1_45" x="-0.875" y="-0.6875" width="14.875" height="10.5" filterUnits="userSpaceOnUse" color-interpolation-filters="sRGB">
<feFlood flood-opacity="0" result="BackgroundImageFix"/>
<feBlend mode="normal" in="SourceGraphic" in2="BackgroundImageFix" result="shape"/>
<feColorMatrix in="SourceAlpha" type="matrix" values="0 0 0 0 0 0 0 0 0 0 0 0 0 0 0 0 0 0 127 0" result="hardAlpha"/>
<feOffset dx="-0.875" dy="-0.875"/>
<feGaussianBlur stdDeviation="0.4375"/>
<feComposite in2="hardAlpha" operator="arithmetic" k2="-1" k3="1"/>
<feColorMatrix type="matrix" values="0 0 0 0 0 0 0 0 0 0 0 0 0 0 0 0 0 0 0.25 0"/>
<feBlend mode="normal" in2="shape" result="effect1_innerShadow_1_45"/>
</filter>
</defs>
</svg>
