<svg width="24" height="24" viewBox="0 0 24 24" fill="none" xmlns="http://www.w3.org/2000/svg">
<path d="M5 17H18C20.2091 17 22 15.2091 22 13C22 11.1238 20.7083 9.54938 18.9657 9.11736C18.9884 8.9147 19 8.70871 19 8.5C19 5.46243 16.5376 3 13.5 3C10.9806 3 8.85678 4.69403 8.20557 7.00519C8.13748 7.00174 8.06894 7 8 7C5.79086 7 4 8.79086 4 11C4 11.0568 4.00118 11.1133 4.00352 11.1695C2.83649 11.5803 2 12.6925 2 14C2 15.6569 3.34315 17 5 17Z" fill="url(#paint0_linear_2_3067)"/>
<path d="M7.80902 18H9.19098C9.56267 18 9.80442 18.3912 9.6382 18.7236L8.5 21L7.3618 18.7236C7.19558 18.3912 7.43733 18 7.80902 18Z" fill="url(#paint1_linear_2_3067)"/>
<path d="M10.8919 18.3243L10.55 19.35L10.2081 20.3757C10.1057 20.6828 10.3343 21 10.6581 21C10.8623 21 11.0435 20.8694 11.1081 20.6757L11.7919 18.6243C11.8943 18.3172 11.6657 18 11.3419 18C11.1377 18 10.9565 18.1306 10.8919 18.3243Z" fill="url(#paint2_linear_2_3067)"/>
<path d="M12.2081 20.3757L12.8919 18.3243C12.9565 18.1306 13.1377 18 13.3419 18C13.6657 18 13.8943 18.3172 13.7919 18.6243L13.1081 20.6757C13.0435 20.8694 12.8623 21 12.6581 21C12.3343 21 12.1057 20.6828 12.2081 20.3757Z" fill="url(#paint3_linear_2_3067)"/>
<path d="M14.2081 20.3757L14.8919 18.3243C14.9565 18.1306 15.1377 18 15.3419 18C15.6657 18 15.8943 18.3172 15.7919 18.6243L15.1081 20.6757C15.0435 20.8694 14.8623 21 14.6581 21C14.3343 21 14.1057 20.6828 14.2081 20.3757Z" fill="url(#paint4_linear_2_3067)"/>
<defs>
<linearGradient id="paint0_linear_2_3067" x1="13.9504" y1="8.88047" x2="5.66817" y2="31.27" gradientUnits="userSpaceOnUse">
<stop stop-color="white"/>
<stop offset="1" stop-color="#4D5E6F"/>
</linearGradient>
<linearGradient id="paint1_linear_2_3067" x1="12" y1="15.629" x2="12" y2="21" gradientUnits="userSpaceOnUse">
<stop stop-color="white"/>
<stop offset="1" stop-color="white" stop-opacity="0.25"/>
</linearGradient>
<linearGradient id="paint2_linear_2_3067" x1="12" y1="16.6736" x2="12" y2="21" gradientUnits="userSpaceOnUse">
<stop stop-color="#C0DFF4"/>
<stop offset="1" stop-color="#379ADC"/>
</linearGradient>
<linearGradient id="paint3_linear_2_3067" x1="12" y1="16.6736" x2="12" y2="21" gradientUnits="userSpaceOnUse">
<stop stop-color="#C0DFF4"/>
<stop offset="1" stop-color="#379ADC"/>
</linearGradient>
<linearGradient id="paint4_linear_2_3067" x1="12" y1="16.6736" x2="12" y2="21" gradientUnits="userSpaceOnUse">
<stop stop-color="#C0DFF4"/>
<stop offset="1" stop-color="#379ADC"/>
</linearGradient>
</defs>
</svg>
