<svg width="24" height="24" viewBox="0 0 24 24" fill="none" xmlns="http://www.w3.org/2000/svg">
<path d="M15.0089 17H18C20.2091 17 22 15.2091 22 13C22 11.1238 20.7083 9.54938 18.9657 9.11736C18.9884 8.9147 19 8.70871 19 8.5C19 5.46243 16.5376 3 13.5 3C10.9806 3 8.85678 4.69403 8.20557 7.00519C8.13748 7.00174 8.06894 7 8 7C5.79086 7 4 8.79086 4 11C4 11.0568 4.00118 11.1133 4.00352 11.1695C2.83649 11.5803 2 12.6925 2 14C2 15.6569 3.34315 17 5 17H7.84825L12.1318 9.50386C12.6405 8.61351 14 8.97454 14 10V14H15C15.7678 14 16.2492 14.8295 15.8682 15.4961L15.0089 17Z" fill="url(#paint0_linear_2_3057)"/>
<path d="M9 17L13 10V15H15L11 22V17H9Z" fill="url(#paint1_radial_2_3057)"/>
<defs>
<linearGradient id="paint0_linear_2_3057" x1="13.9504" y1="9.20717" x2="4.84748" y2="32.5201" gradientUnits="userSpaceOnUse">
<stop stop-color="white"/>
<stop offset="1" stop-color="#4D5E6F"/>
</linearGradient>
<radialGradient id="paint1_radial_2_3057" cx="0" cy="0" r="1" gradientUnits="userSpaceOnUse" gradientTransform="translate(13.7497 16.7783) rotate(114.881) scale(4.15872 15.168)">
<stop stop-color="#FFD600"/>
<stop offset="1" stop-color="#D5B927" stop-opacity="0.9"/>
</radialGradient>
</defs>
</svg>
